<svg width="150" height="36" viewBox="0 0 150 36" fill="none" xmlns="http://www.w3.org/2000/svg">
<path d="M15.08 20.488H6.232V29H3.068V9.456H6.232V17.688H15.08V9.456H18.244V29H15.08V20.488ZM28.6843 29.336C27.639 29.336 26.7056 29.1587 25.8843 28.804C25.063 28.4493 24.363 27.9453 23.7843 27.292C23.2056 26.62 22.7576 25.8173 22.4403 24.884C22.1416 23.932 21.9923 22.8773 21.9923 21.72C21.9923 20.5627 22.1416 19.5173 22.4403 18.584C22.7576 17.632 23.2056 16.8293 23.7843 16.176C24.363 15.504 25.063 14.9907 25.8843 14.636C26.7056 14.2813 27.639 14.104 28.6843 14.104C29.7483 14.104 30.6816 14.2907 31.4843 14.664C32.3056 15.0373 32.987 15.56 33.5283 16.232C34.0696 16.8853 34.471 17.6507 34.7323 18.528C35.0123 19.4053 35.1523 20.348 35.1523 21.356V22.504H25.1563V22.98C25.1563 24.1 25.483 25.024 26.1363 25.752C26.8083 26.4613 27.7603 26.816 28.9923 26.816C29.8883 26.816 30.6443 26.62 31.2603 26.228C31.8763 25.836 32.399 25.304 32.8283 24.632L34.6203 26.396C34.079 27.292 33.295 28.0107 32.2683 28.552C31.2416 29.0747 30.047 29.336 28.6843 29.336ZM28.6843 16.484C28.1616 16.484 27.6763 16.5773 27.2283 16.764C26.799 16.9507 26.4256 17.212 26.1083 17.548C25.8096 17.884 25.5763 18.2853 25.4083 18.752C25.2403 19.2187 25.1563 19.732 25.1563 20.292V20.488H31.9323V20.208C31.9323 19.088 31.643 18.192 31.0643 17.52C30.4856 16.8293 29.6923 16.484 28.6843 16.484ZM49.3389 29C48.5362 29 47.9202 28.776 47.4909 28.328C47.0615 27.8613 46.8002 27.2733 46.7069 26.564H46.5669C46.2869 27.4787 45.7735 28.1693 45.0269 28.636C44.2802 29.1027 43.3749 29.336 42.3109 29.336C40.7989 29.336 39.6322 28.944 38.8109 28.16C38.0082 27.376 37.6069 26.3213 37.6069 24.996C37.6069 23.54 38.1295 22.448 39.1749 21.72C40.2389 20.992 41.7882 20.628 43.8229 20.628H46.4549V19.396C46.4549 18.5 46.2122 17.8093 45.7269 17.324C45.2415 16.8387 44.4855 16.596 43.4589 16.596C42.6002 16.596 41.9002 16.7827 41.3589 17.156C40.8175 17.5293 40.3602 18.0053 39.9869 18.584L38.1669 16.932C38.6522 16.1107 39.3335 15.4387 40.2109 14.916C41.0882 14.3747 42.2362 14.104 43.6549 14.104C45.5402 14.104 46.9869 14.5427 47.9949 15.42C49.0029 16.2973 49.5069 17.5573 49.5069 19.2V26.508H51.0469V29H49.3389ZM43.1789 27.012C44.1309 27.012 44.9149 26.8067 45.5309 26.396C46.1469 25.9667 46.4549 25.3973 46.4549 24.688V22.588H43.8789C41.7695 22.588 40.7149 23.2413 40.7149 24.548V25.052C40.7149 25.7053 40.9295 26.2 41.3589 26.536C41.8069 26.8533 42.4135 27.012 43.1789 27.012ZM57.2861 29C56.2407 29 55.4567 28.7387 54.9341 28.216C54.4301 27.6747 54.1781 26.928 54.1781 25.976V8.28H57.2301V26.508H59.2461V29H57.2861ZM66.1977 29C65.1337 29 64.3311 28.7293 63.7897 28.188C63.2484 27.628 62.9777 26.844 62.9777 25.836V16.932H60.7097V14.44H61.9417C62.4457 14.44 62.7911 14.328 62.9777 14.104C63.1831 13.88 63.2857 13.516 63.2857 13.012V10.464H66.0297V14.44H69.0817V16.932H66.0297V26.508H68.8577V29H66.1977ZM72.5323 8.28H75.5843V16.848H75.7243C76.0416 16.064 76.5176 15.4107 77.1523 14.888C77.8056 14.3653 78.6923 14.104 79.8123 14.104C81.3056 14.104 82.4629 14.5987 83.2843 15.588C84.1243 16.5587 84.5443 17.9493 84.5443 19.76V29H81.4923V20.124C81.4923 17.8653 80.5776 16.736 78.7483 16.736C78.3563 16.736 77.9643 16.792 77.5723 16.904C77.1989 16.9973 76.8629 17.1467 76.5643 17.352C76.2656 17.5573 76.0229 17.8187 75.8363 18.136C75.6683 18.4533 75.5843 18.8173 75.5843 19.228V29H72.5323V8.28ZM95.8957 9.456H104.548C106.172 9.456 107.441 9.91333 108.356 10.828C109.289 11.7427 109.756 12.9653 109.756 14.496C109.756 15.224 109.653 15.8493 109.448 16.372C109.242 16.876 108.981 17.296 108.664 17.632C108.346 17.9493 107.982 18.192 107.572 18.36C107.161 18.5093 106.76 18.6027 106.368 18.64V18.808C106.76 18.8267 107.189 18.92 107.656 19.088C108.141 19.256 108.589 19.5267 109 19.9C109.41 20.2547 109.756 20.7213 110.036 21.3C110.316 21.86 110.456 22.5507 110.456 23.372C110.456 24.156 110.325 24.8933 110.064 25.584C109.821 26.2747 109.476 26.872 109.028 27.376C108.58 27.88 108.048 28.2813 107.432 28.58C106.816 28.86 106.144 29 105.416 29H95.8957V9.456ZM99.0597 26.284H104.492C105.313 26.284 105.957 26.0693 106.424 25.64C106.89 25.2107 107.124 24.5947 107.124 23.792V22.84C107.124 22.0373 106.89 21.4213 106.424 20.992C105.957 20.5627 105.313 20.348 104.492 20.348H99.0597V26.284ZM99.0597 17.716H103.96C104.744 17.716 105.35 17.52 105.78 17.128C106.209 16.7173 106.424 16.1387 106.424 15.392V14.496C106.424 13.7493 106.209 13.18 105.78 12.788C105.35 12.3773 104.744 12.172 103.96 12.172H99.0597V17.716ZM145.329 29C144.265 29 143.463 28.7293 142.921 28.188C142.38 27.628 142.109 26.844 142.109 25.836V16.932H139.841V14.44H141.073C141.577 14.44 141.923 14.328 142.109 14.104C142.315 13.88 142.417 13.516 142.417 13.012V10.464H145.161V14.44H148.213V16.932H145.161V26.508H147.989V29H145.329Z" fill="white"/>
<path d="M133.667 17.4166H134.25C135.341 17.4166 135.886 17.4166 136.292 17.6511C136.558 17.8047 136.779 18.0256 136.932 18.2916C137.167 18.6976 137.167 19.2424 137.167 20.3333C137.167 21.4241 137.167 21.9689 136.932 22.3749C136.779 22.6409 136.558 22.8618 136.292 23.0154C135.886 23.2499 135.341 23.2499 134.25 23.2499H133.667M117.333 17.4166H116.75C115.659 17.4166 115.114 17.4166 114.708 17.6511C114.442 17.8047 114.221 18.0256 114.068 18.2916C113.833 18.6976 113.833 19.2424 113.833 20.3333C113.833 21.4241 113.833 21.9689 114.068 22.3749C114.221 22.6409 114.442 22.8618 114.708 23.0154C115.114 23.2499 115.659 23.2499 116.75 23.2499H117.333M125.5 9.83325C125.964 9.83325 126.409 9.64888 126.737 9.32069C127.066 8.9925 127.25 8.54738 127.25 8.08325C127.25 7.61912 127.066 7.174 126.737 6.84582C126.409 6.51763 125.964 6.33325 125.5 6.33325C125.036 6.33325 124.591 6.51763 124.263 6.84582C123.934 7.174 123.75 7.61912 123.75 8.08325C123.75 8.54738 123.934 8.9925 124.263 9.32069C124.591 9.64888 125.036 9.83325 125.5 9.83325ZM125.5 9.83325V13.3333M122 17.9999V19.1666M129 17.9999V19.1666M124.333 13.3333H126.667C129.966 13.3333 131.617 13.3333 132.641 14.3588C133.667 15.3831 133.667 17.0339 133.667 20.3333C133.667 23.6326 133.667 25.2834 132.641 26.3078C131.617 27.3333 129.966 27.3333 126.667 27.3333H125.5C125.5 27.3333 124.917 29.6666 120.833 29.6666C120.833 29.6666 122 28.4894 122 27.3134C120.188 27.2586 119.107 27.0568 118.359 26.3078C117.333 25.2834 117.333 23.6326 117.333 20.3333C117.333 17.0339 117.333 15.3831 118.359 14.3588C119.383 13.3333 121.034 13.3333 124.333 13.3333Z" stroke="#FEEE0C" stroke-width="1.5" stroke-linecap="round" stroke-linejoin="round"/>
<path d="M123.167 23.25C123.167 23.25 123.945 23.8333 125.5 23.8333C127.055 23.8333 127.833 23.25 127.833 23.25" stroke="#FEEE0C" stroke-width="1.5" stroke-linecap="round" stroke-linejoin="round"/>
</svg>
