<svg width="205" height="36" viewBox="0 0 205 36" fill="none" xmlns="http://www.w3.org/2000/svg">
<path d="M14.7071 13.3739C15.0976 12.9833 15.0976 12.3502 14.7071 11.9596C14.3166 11.5691 13.6835 11.5691 13.2929 11.9596L7.95958 17.293C7.76431 17.4882 7.66669 17.7442 7.66669 18.0001C7.66669 18.1357 7.69367 18.265 7.74257 18.3829C7.79137 18.5007 7.8637 18.6113 7.95958 18.7071L13.2929 24.0405C13.6835 24.431 14.3166 24.431 14.7071 24.0405C15.0976 23.6499 15.0976 23.0169 14.7071 22.6263L11.0809 19.0001H24C24.5523 19.0001 25 18.5523 25 18.0001C25 17.4478 24.5523 17.0001 24 17.0001H11.0809L14.7071 13.3739Z" fill="white"/>
<path d="M70.58 20.488H61.732V29H58.568V9.456H61.732V17.688H70.58V9.456H73.744V29H70.58V20.488ZM84.1843 29.336C83.139 29.336 82.2056 29.1587 81.3843 28.804C80.563 28.4493 79.863 27.9453 79.2843 27.292C78.7056 26.62 78.2576 25.8173 77.9403 24.884C77.6416 23.932 77.4923 22.8773 77.4923 21.72C77.4923 20.5627 77.6416 19.5173 77.9403 18.584C78.2576 17.632 78.7056 16.8293 79.2843 16.176C79.863 15.504 80.563 14.9907 81.3843 14.636C82.2056 14.2813 83.139 14.104 84.1843 14.104C85.2483 14.104 86.1816 14.2907 86.9843 14.664C87.8056 15.0373 88.487 15.56 89.0283 16.232C89.5696 16.8853 89.971 17.6507 90.2323 18.528C90.5123 19.4053 90.6523 20.348 90.6523 21.356V22.504H80.6563V22.98C80.6563 24.1 80.983 25.024 81.6363 25.752C82.3083 26.4613 83.2603 26.816 84.4923 26.816C85.3883 26.816 86.1443 26.62 86.7603 26.228C87.3763 25.836 87.899 25.304 88.3283 24.632L90.1203 26.396C89.579 27.292 88.795 28.0107 87.7683 28.552C86.7416 29.0747 85.547 29.336 84.1843 29.336ZM84.1843 16.484C83.6616 16.484 83.1763 16.5773 82.7283 16.764C82.299 16.9507 81.9256 17.212 81.6083 17.548C81.3096 17.884 81.0763 18.2853 80.9083 18.752C80.7403 19.2187 80.6563 19.732 80.6563 20.292V20.488H87.4323V20.208C87.4323 19.088 87.143 18.192 86.5643 17.52C85.9856 16.8293 85.1923 16.484 84.1843 16.484ZM104.839 29C104.036 29 103.42 28.776 102.991 28.328C102.562 27.8613 102.3 27.2733 102.207 26.564H102.067C101.787 27.4787 101.274 28.1693 100.527 28.636C99.7802 29.1027 98.8749 29.336 97.8109 29.336C96.2989 29.336 95.1322 28.944 94.3109 28.16C93.5082 27.376 93.1069 26.3213 93.1069 24.996C93.1069 23.54 93.6295 22.448 94.6749 21.72C95.7389 20.992 97.2882 20.628 99.3229 20.628H101.955V19.396C101.955 18.5 101.712 17.8093 101.227 17.324C100.742 16.8387 99.9855 16.596 98.9589 16.596C98.1002 16.596 97.4002 16.7827 96.8589 17.156C96.3175 17.5293 95.8602 18.0053 95.4869 18.584L93.6669 16.932C94.1522 16.1107 94.8335 15.4387 95.7109 14.916C96.5882 14.3747 97.7362 14.104 99.1549 14.104C101.04 14.104 102.487 14.5427 103.495 15.42C104.503 16.2973 105.007 17.5573 105.007 19.2V26.508H106.547V29H104.839ZM98.6789 27.012C99.6309 27.012 100.415 26.8067 101.031 26.396C101.647 25.9667 101.955 25.3973 101.955 24.688V22.588H99.3789C97.2695 22.588 96.2149 23.2413 96.2149 24.548V25.052C96.2149 25.7053 96.4295 26.2 96.8589 26.536C97.3069 26.8533 97.9135 27.012 98.6789 27.012ZM112.786 29C111.741 29 110.957 28.7387 110.434 28.216C109.93 27.6747 109.678 26.928 109.678 25.976V8.28H112.73V26.508H114.746V29H112.786ZM121.698 29C120.634 29 119.831 28.7293 119.29 28.188C118.748 27.628 118.478 26.844 118.478 25.836V16.932H116.21V14.44H117.442C117.946 14.44 118.291 14.328 118.478 14.104C118.683 13.88 118.786 13.516 118.786 13.012V10.464H121.53V14.44H124.582V16.932H121.53V26.508H124.358V29H121.698ZM128.032 8.28H131.084V16.848H131.224C131.542 16.064 132.018 15.4107 132.652 14.888C133.306 14.3653 134.192 14.104 135.312 14.104C136.806 14.104 137.963 14.5987 138.784 15.588C139.624 16.5587 140.044 17.9493 140.044 19.76V29H136.992V20.124C136.992 17.8653 136.078 16.736 134.248 16.736C133.856 16.736 133.464 16.792 133.072 16.904C132.699 16.9973 132.363 17.1467 132.064 17.352C131.766 17.5573 131.523 17.8187 131.336 18.136C131.168 18.4533 131.084 18.8173 131.084 19.228V29H128.032V8.28ZM151.396 9.456H160.048C161.672 9.456 162.941 9.91333 163.856 10.828C164.789 11.7427 165.256 12.9653 165.256 14.496C165.256 15.224 165.153 15.8493 164.948 16.372C164.742 16.876 164.481 17.296 164.164 17.632C163.846 17.9493 163.482 18.192 163.072 18.36C162.661 18.5093 162.26 18.6027 161.868 18.64V18.808C162.26 18.8267 162.689 18.92 163.156 19.088C163.641 19.256 164.089 19.5267 164.5 19.9C164.91 20.2547 165.256 20.7213 165.536 21.3C165.816 21.86 165.956 22.5507 165.956 23.372C165.956 24.156 165.825 24.8933 165.564 25.584C165.321 26.2747 164.976 26.872 164.528 27.376C164.08 27.88 163.548 28.2813 162.932 28.58C162.316 28.86 161.644 29 160.916 29H151.396V9.456ZM154.56 26.284H159.992C160.813 26.284 161.457 26.0693 161.924 25.64C162.39 25.2107 162.624 24.5947 162.624 23.792V22.84C162.624 22.0373 162.39 21.4213 161.924 20.992C161.457 20.5627 160.813 20.348 159.992 20.348H154.56V26.284ZM154.56 17.716H159.46C160.244 17.716 160.85 17.52 161.28 17.128C161.709 16.7173 161.924 16.1387 161.924 15.392V14.496C161.924 13.7493 161.709 13.18 161.28 12.788C160.85 12.3773 160.244 12.172 159.46 12.172H154.56V17.716ZM200.829 29C199.765 29 198.963 28.7293 198.421 28.188C197.88 27.628 197.609 26.844 197.609 25.836V16.932H195.341V14.44H196.573C197.077 14.44 197.423 14.328 197.609 14.104C197.815 13.88 197.917 13.516 197.917 13.012V10.464H200.661V14.44H203.713V16.932H200.661V26.508H203.489V29H200.829Z" fill="white"/>
<path d="M189.167 17.4166H189.75C190.841 17.4166 191.386 17.4166 191.792 17.6511C192.058 17.8047 192.279 18.0256 192.432 18.2916C192.667 18.6976 192.667 19.2424 192.667 20.3333C192.667 21.4241 192.667 21.9689 192.432 22.3749C192.279 22.6409 192.058 22.8618 191.792 23.0154C191.386 23.2499 190.841 23.2499 189.75 23.2499H189.167M172.833 17.4166H172.25C171.159 17.4166 170.614 17.4166 170.208 17.6511C169.942 17.8047 169.721 18.0256 169.568 18.2916C169.333 18.6976 169.333 19.2424 169.333 20.3333C169.333 21.4241 169.333 21.9689 169.568 22.3749C169.721 22.6409 169.942 22.8618 170.208 23.0154C170.614 23.2499 171.159 23.2499 172.25 23.2499H172.833M181 9.83325C181.464 9.83325 181.909 9.64888 182.237 9.32069C182.566 8.9925 182.75 8.54738 182.75 8.08325C182.75 7.61912 182.566 7.174 182.237 6.84582C181.909 6.51763 181.464 6.33325 181 6.33325C180.536 6.33325 180.091 6.51763 179.763 6.84582C179.434 7.174 179.25 7.61912 179.25 8.08325C179.25 8.54738 179.434 8.9925 179.763 9.32069C180.091 9.64888 180.536 9.83325 181 9.83325ZM181 9.83325V13.3333M177.5 17.9999V19.1666M184.5 17.9999V19.1666M179.833 13.3333H182.167C185.466 13.3333 187.117 13.3333 188.141 14.3588C189.167 15.3831 189.167 17.0339 189.167 20.3333C189.167 23.6326 189.167 25.2834 188.141 26.3078C187.117 27.3333 185.466 27.3333 182.167 27.3333H181C181 27.3333 180.417 29.6666 176.333 29.6666C176.333 29.6666 177.5 28.4894 177.5 27.3134C175.688 27.2586 174.607 27.0568 173.859 26.3078C172.833 25.2834 172.833 23.6326 172.833 20.3333C172.833 17.0339 172.833 15.3831 173.859 14.3588C174.883 13.3333 176.534 13.3333 179.833 13.3333Z" stroke="#FEEE0C" stroke-width="1.5" stroke-linecap="round" stroke-linejoin="round"/>
<path d="M178.667 23.25C178.667 23.25 179.445 23.8333 181 23.8333C182.555 23.8333 183.333 23.25 183.333 23.25" stroke="#FEEE0C" stroke-width="1.5" stroke-linecap="round" stroke-linejoin="round"/>
</svg>
