<svg width="24" height="24" viewBox="0 0 24 24" fill="none" xmlns="http://www.w3.org/2000/svg">
<path fill-rule="evenodd" clip-rule="evenodd" d="M7.47803 4.1054L16.478 4.0979L16.485 13.0979L7.48503 13.1054L7.47803 4.1054ZM13.982 9.0289C13.983 10.0954 13.1035 10.9339 11.9835 10.9349C10.8635 10.9359 9.98303 10.0984 9.98203 9.0319C9.98103 7.9654 11.979 5.6019 11.979 5.6019C11.979 5.6019 13.981 8.0384 13.982 9.0289Z" fill="#FEEE0C"/>
<path d="M8.49206 13.9928C8.4264 13.9928 8.36139 14.0058 8.30074 14.031C8.24009 14.0561 8.18499 14.093 8.13858 14.1394C8.09217 14.1859 8.05537 14.241 8.03027 14.3017C8.00518 14.3624 7.99228 14.4274 7.99231 14.4931C7.99234 14.5587 8.00531 14.6237 8.03047 14.6844C8.05562 14.745 8.09248 14.8001 8.13893 14.8465C8.18539 14.8929 8.24052 14.9297 8.3012 14.9548C8.36187 14.9799 8.4269 14.9928 8.49256 14.9928L10.4926 14.9913C10.6252 14.9912 10.7523 14.9385 10.846 14.8447C10.9398 14.7509 10.9924 14.6237 10.9923 14.4911C10.9922 14.3584 10.9395 14.2313 10.8457 14.1376C10.7519 14.0439 10.6247 13.9912 10.4921 13.9913L8.49206 13.9928ZM12.9926 14.4893C12.9925 14.4236 13.0054 14.3586 13.0304 14.2979C13.0555 14.2372 13.0923 14.1821 13.1387 14.1356C13.185 14.0891 13.2401 14.0522 13.3008 14.0271C13.3614 14.0019 13.4264 13.9889 13.4921 13.9888L15.4921 13.9873C15.6247 13.9872 15.7519 14.0399 15.8457 14.1336C15.9395 14.2273 15.9922 14.3544 15.9923 14.4871C15.9924 14.6197 15.9398 14.7469 15.846 14.8407C15.7523 14.9345 15.6252 14.9872 15.4926 14.9873L13.4926 14.9888C13.36 14.9888 13.2328 14.9361 13.139 14.8424C13.0452 14.7486 12.9926 14.6219 12.9926 14.4893ZM11.9911 20.1018C12.2563 20.1016 12.5106 19.9961 12.6979 19.8084C12.8853 19.6207 12.9905 19.3663 12.9903 19.1011C12.9901 18.8358 12.8846 18.5816 12.6969 18.3942C12.5092 18.2068 12.2548 18.1016 11.9896 18.1018C11.7243 18.102 11.4701 18.2076 11.2827 18.3952C11.0953 18.5829 10.9901 18.8373 10.9903 19.1026C10.9905 19.3678 11.0961 19.622 11.2837 19.8094C11.4714 19.9968 11.7258 20.102 11.9911 20.1018Z" fill="#FEEE0C"/>
<path fill-rule="evenodd" clip-rule="evenodd" d="M6.48904 17.6064L8.98904 17.6039L8.99254 22.1039L14.9925 22.0989L14.989 17.5989L17.489 17.5974C17.686 17.5972 17.881 17.5582 18.063 17.4827C18.2449 17.4071 18.4101 17.2964 18.5493 17.157C18.6884 17.0176 18.7987 16.8521 18.8739 16.6701C18.9491 16.488 18.9877 16.2929 18.9875 16.0959L18.9775 3.59591C18.9771 3.19817 18.8188 2.81688 18.5373 2.53587C18.2558 2.25486 17.8743 2.09715 17.4765 2.09741L6.47654 2.10641C6.27956 2.10654 6.08453 2.14547 5.90259 2.22098C5.72065 2.29648 5.55537 2.40708 5.41617 2.54646C5.27698 2.68584 5.1666 2.85127 5.09134 3.03331C5.01608 3.21535 4.97741 3.41043 4.97754 3.60741L4.98754 16.1074C4.98767 16.3044 5.02662 16.4995 5.10215 16.6815C5.17768 16.8634 5.28833 17.0288 5.42776 17.168C5.5672 17.3072 5.73269 17.4175 5.91478 17.4928C6.09688 17.568 6.29201 17.6066 6.48904 17.6064ZM17.477 3.09741L6.47704 3.10641C6.34452 3.10654 6.21747 3.15928 6.12381 3.25304C6.03015 3.34679 5.97754 3.47389 5.97754 3.60641L5.98754 16.1064C5.98754 16.1721 6.00049 16.2372 6.02565 16.2979C6.05081 16.3586 6.08768 16.4137 6.13416 16.4601C6.18065 16.5066 6.23582 16.5434 6.29654 16.5685C6.35726 16.5936 6.42234 16.6065 6.48804 16.6064L8.98804 16.6039L8.98754 15.6039L14.9875 15.5989L14.988 16.5989L17.488 16.5974C17.5537 16.5974 17.6188 16.5845 17.6795 16.5593C17.7402 16.5341 17.7953 16.4973 17.8418 16.4508C17.8882 16.4043 17.925 16.3491 17.9501 16.2884C17.9752 16.2277 17.9881 16.1626 17.988 16.0969L17.978 3.59691C17.978 3.53117 17.9651 3.46607 17.9399 3.40534C17.9147 3.34461 17.8778 3.28945 17.8312 3.243C17.7847 3.19656 17.7295 3.15975 17.6687 3.13469C17.6079 3.10962 17.5428 3.09678 17.477 3.09691M13.988 16.5999L9.98804 16.6034L9.99204 21.1034L13.992 21.0999L13.988 16.5999Z" fill="#FEEE0C"/>
</svg>
