<svg width="24" height="24" viewBox="0 0 24 24" fill="none" xmlns="http://www.w3.org/2000/svg">
<path d="M9.05251 8.12842C9.05251 8.26103 8.99983 8.3882 8.90606 8.48197C8.81229 8.57574 8.68511 8.62842 8.55251 8.62842C8.4199 8.62842 8.29272 8.57574 8.19895 8.48197C8.10518 8.3882 8.05251 8.26103 8.05251 8.12842C8.05251 7.99581 8.10518 7.86863 8.19895 7.77486C8.29272 7.6811 8.4199 7.62842 8.55251 7.62842C8.68511 7.62842 8.81229 7.6811 8.90606 7.77486C8.99983 7.86863 9.05251 7.99581 9.05251 8.12842ZM7.59351 8.74692C7.65981 8.74692 7.7234 8.72058 7.77028 8.67369C7.81717 8.62681 7.84351 8.56322 7.84351 8.49692C7.84351 8.43061 7.81717 8.36702 7.77028 8.32014C7.7234 8.27326 7.65981 8.24692 7.59351 8.24692C7.5272 8.24692 7.46361 8.27326 7.41673 8.32014C7.36984 8.36702 7.34351 8.43061 7.34351 8.49692C7.34351 8.56322 7.36984 8.62681 7.41673 8.67369C7.46361 8.72058 7.5272 8.74692 7.59351 8.74692ZM8.21001 8.98792C8.21001 9.05422 8.18367 9.11781 8.13678 9.16469C8.0899 9.21158 8.02631 9.23792 7.96001 9.23792C7.8937 9.23792 7.83011 9.21158 7.78323 9.16469C7.73634 9.11781 7.71001 9.05422 7.71001 8.98792C7.71001 8.92161 7.73634 8.85803 7.78323 8.81114C7.83011 8.76426 7.8937 8.73792 7.96001 8.73792C8.02631 8.73792 8.0899 8.76426 8.13678 8.81114C8.18367 8.85803 8.21001 8.92161 8.21001 8.98792Z" fill="#FEEE0C"/>
<path fill-rule="evenodd" clip-rule="evenodd" d="M4.8465 10.997C5.4365 11.7605 7.16 11.417 8.6955 10.2305C10.2315 9.04348 10.9985 7.46248 10.4085 6.69898C9.8185 5.93548 8.0945 6.27898 6.5585 7.46548C5.0235 8.65248 4.2565 10.2335 4.8465 10.997ZM6.2215 10.3645C6.7365 10.262 7.4115 9.95898 8.0845 9.43948C8.7565 8.91948 9.22 8.34248 9.4495 7.86948C9.604 7.55098 9.6115 7.38448 9.6055 7.31948C9.544 7.29748 9.3805 7.26248 9.0335 7.33148C8.5185 7.43398 7.8425 7.73698 7.1705 8.25648C6.498 8.77648 6.0345 9.35348 5.8055 9.82648C5.6505 10.145 5.6435 10.3115 5.649 10.3765C5.711 10.399 5.8745 10.4335 6.2215 10.3645Z" fill="#FEEE0C"/>
<path d="M13.8875 15.1899C14.0201 15.1899 14.1473 15.1373 14.2411 15.0435C14.3348 14.9497 14.3875 14.8225 14.3875 14.6899C14.3875 14.5573 14.3348 14.4302 14.2411 14.3364C14.1473 14.2426 14.0201 14.1899 13.8875 14.1899C13.7549 14.1899 13.6277 14.2426 13.534 14.3364C13.4402 14.4302 13.3875 14.5573 13.3875 14.6899C13.3875 14.8225 13.4402 14.9497 13.534 15.0435C13.6277 15.1373 13.7549 15.1899 13.8875 15.1899ZM14.9115 15.2394C14.9115 15.2692 14.9057 15.2986 14.8943 15.3261C14.8829 15.3536 14.8662 15.3786 14.8452 15.3996C14.8241 15.4206 14.7992 15.4373 14.7717 15.4487C14.7442 15.4601 14.7148 15.4659 14.685 15.4659C14.6553 15.4659 14.6258 15.4601 14.5983 15.4487C14.5709 15.4373 14.5459 15.4206 14.5249 15.3996C14.5038 15.3786 14.4871 15.3536 14.4758 15.3261C14.4644 15.2986 14.4585 15.2692 14.4585 15.2394C14.4585 15.1794 14.4824 15.1218 14.5249 15.0793C14.5673 15.0368 14.6249 15.0129 14.685 15.0129C14.7451 15.0129 14.8027 15.0368 14.8452 15.0793C14.8876 15.1218 14.9115 15.1794 14.9115 15.2394Z" fill="#FEEE0C"/>
<path fill-rule="evenodd" clip-rule="evenodd" d="M15.6935 13.7679C17.337 14.7599 18.269 16.2264 17.776 17.0434C17.2825 17.8604 15.5505 17.7184 13.907 16.7259C12.264 15.7339 11.332 14.2674 11.825 13.4504C12.318 12.6334 14.05 12.7759 15.6935 13.7679ZM15.1765 14.6234C15.895 15.0569 16.4145 15.5704 16.6915 16.0074C16.8725 16.2909 16.902 16.4509 16.9055 16.5174C16.845 16.5459 16.6895 16.5934 16.3545 16.5659C15.8385 16.5239 15.1425 16.3034 14.4245 15.8694C13.706 15.4359 13.1865 14.9224 12.9085 14.4854C12.7285 14.2019 12.6985 14.0419 12.695 13.9754C12.756 13.9469 12.911 13.8994 13.246 13.9269C13.762 13.9689 14.4585 14.1894 15.1765 14.6234Z" fill="#FEEE0C"/>
<path d="M14.476 8.7549C14.6086 8.7549 14.7358 8.70222 14.8295 8.60846C14.9233 8.51469 14.976 8.38751 14.976 8.2549C14.976 8.12229 14.9233 7.99512 14.8295 7.90135C14.7358 7.80758 14.6086 7.7549 14.476 7.7549C14.3434 7.7549 14.2162 7.80758 14.1224 7.90135C14.0287 7.99512 13.976 8.12229 13.976 8.2549C13.976 8.38751 14.0287 8.51469 14.1224 8.60846C14.2162 8.70222 14.3434 8.7549 14.476 8.7549ZM14.339 7.2499C14.339 7.34273 14.3021 7.43175 14.2365 7.49739C14.1708 7.56303 14.0818 7.5999 13.989 7.5999C13.8962 7.5999 13.8071 7.56303 13.7415 7.49739C13.6759 7.43175 13.639 7.34273 13.639 7.2499C13.639 7.15708 13.6759 7.06805 13.7415 7.00241C13.8071 6.93678 13.8962 6.8999 13.989 6.8999C14.0818 6.8999 14.1708 6.93678 14.2365 7.00241C14.3021 7.06805 14.339 7.15708 14.339 7.2499Z" fill="#FEEE0C"/>
<path fill-rule="evenodd" clip-rule="evenodd" d="M16.109 11.77C16.984 11.3615 17.0255 9.60349 16.203 7.84449C15.38 6.08499 14.004 4.99099 13.129 5.39949C12.2545 5.80899 12.213 7.56649 13.0355 9.32599C13.8585 11.085 15.2345 12.179 16.109 11.77ZM15.793 10.2905C15.8055 9.76499 15.6575 9.03899 15.297 8.26849C14.937 7.49849 14.4745 6.91949 14.063 6.59199C13.785 6.37149 13.624 6.32799 13.559 6.31899C13.524 6.37449 13.454 6.52599 13.4455 6.88099C13.433 7.40649 13.581 8.13249 13.9415 8.90249C14.3015 9.67249 14.764 10.252 15.1755 10.579C15.4535 10.8 15.6145 10.8435 15.6795 10.852C15.7145 10.797 15.7845 10.645 15.793 10.2905Z" fill="#FEEE0C"/>
<path d="M8.38451 16.1591C8.51712 16.1591 8.6443 16.1064 8.73806 16.0126C8.83183 15.9189 8.88451 15.7917 8.88451 15.6591C8.88451 15.5265 8.83183 15.3993 8.73806 15.3055C8.6443 15.2118 8.51712 15.1591 8.38451 15.1591C8.2519 15.1591 8.12473 15.2118 8.03096 15.3055C7.93719 15.3993 7.88451 15.5265 7.88451 15.6591C7.88451 15.7917 7.93719 15.9189 8.03096 16.0126C8.12473 16.1064 8.2519 16.1591 8.38451 16.1591ZM9.36501 16.2476C9.36501 16.3077 9.34115 16.3653 9.29867 16.4077C9.25619 16.4502 9.19858 16.4741 9.13851 16.4741C9.07844 16.4741 9.02083 16.4502 8.97835 16.4077C8.93587 16.3653 8.91201 16.3077 8.91201 16.2476C8.91201 16.1874 8.9359 16.1298 8.97842 16.0872C9.02095 16.0447 9.07862 16.0208 9.13876 16.0208C9.1989 16.0208 9.25657 16.0447 9.2991 16.0872C9.34162 16.1298 9.36551 16.1874 9.36551 16.2476M7.94851 14.9986C8.04134 14.9986 8.13036 14.9617 8.196 14.8961C8.26164 14.8304 8.29851 14.7414 8.29851 14.6486C8.29851 14.5558 8.26164 14.4667 8.196 14.4011C8.13036 14.3355 8.04134 14.2986 7.94851 14.2986C7.85569 14.2986 7.76666 14.3355 7.70102 14.4011C7.63539 14.4667 7.59851 14.5558 7.59851 14.6486C7.59851 14.7414 7.63539 14.8304 7.70102 14.8961C7.76666 14.9617 7.85569 14.9986 7.94851 14.9986Z" fill="#FEEE0C"/>
<path fill-rule="evenodd" clip-rule="evenodd" d="M10.284 15.3089C11.176 17.0839 11.184 18.8819 10.3015 19.3254C9.41952 19.7689 7.98152 18.6894 7.08902 16.9154C6.19702 15.1404 6.18902 13.3424 7.07102 12.8989C7.95302 12.4554 9.39202 13.5344 10.284 15.3089ZM9.39052 15.7584C9.78202 16.5374 9.95552 17.2789 9.95802 17.8209C9.96002 18.2129 9.88202 18.3704 9.84802 18.4219C9.78602 18.4189 9.61302 18.3869 9.29902 18.1519C8.86602 17.8269 8.37402 17.2454 7.98252 16.4659C7.59052 15.6864 7.41752 14.9454 7.41502 14.4034C7.41302 14.0114 7.49102 13.8534 7.52502 13.8024C7.58702 13.8054 7.76002 13.8374 8.07402 14.0724C8.50702 14.3974 8.99902 14.9789 9.39052 15.7584Z" fill="#FEEE0C"/>
<path fill-rule="evenodd" clip-rule="evenodd" d="M12 22C17.523 22 22 17.523 22 12C22 6.477 17.523 2 12 2C6.477 2 2 6.477 2 12C2 17.523 6.477 22 12 22ZM12 21C16.9705 21 21 16.9705 21 12C21 7.0295 16.9705 3 12 3C7.0295 3 3 7.0295 3 12C3 16.9705 7.0295 21 12 21Z" fill="#FEEE0C"/>
</svg>
