<svg width="24" height="24" viewBox="0 0 24 24" fill="none" xmlns="http://www.w3.org/2000/svg">
<path d="M12 2C9.927 2 6.882 2.567 6.29 4.892C5.766 6.949 5.888 8.42 7.194 10.167L14.887 20.458C15.661 21.494 16.049 22.011 16.573 22C17.097 21.988 17.46 21.454 18.186 20.386L18.715 19.608C19.622 18.273 20.076 17.605 19.989 16.883C19.902 16.161 19.303 15.615 18.104 14.523L6.8 4" stroke="#FEEE0C" stroke-width="1.5" stroke-linecap="round" stroke-linejoin="round"/>
<path d="M12 2C14.073 2 17.1179 2.567 17.7099 4.892C18.2339 6.949 18.112 8.42 16.806 10.167L15.436 12M17.2 4L12 8.841M12 16.596L9.11195 20.458C8.33795 21.494 7.95195 22.011 7.42695 22C6.90295 21.988 6.53995 21.454 5.81395 20.386L5.28495 19.608C4.37795 18.273 3.92395 17.605 4.00995 16.883C4.09595 16.161 4.69695 15.615 5.89595 14.523L8.60595 12" stroke="#FEEE0C" stroke-width="1.5" stroke-linecap="round" stroke-linejoin="round"/>
</svg>
