<svg width="393" height="296" viewBox="0 0 393 296" fill="none" xmlns="http://www.w3.org/2000/svg">
<g filter="url(#filter0_b_18_997)">
<rect width="393" height="227.416" transform="translate(-1.52588e-05 0.319946)" fill="#202020" fill-opacity="0.92"/>
<g filter="url(#filter1_d_18_997)">
<rect x="6.28798" y="6.60794" width="122.616" height="48.208" rx="5.24" fill="#434343"/>
<path d="M67.9926 31.6079H70.2185V13.1477H67.967L63.0545 16.6785V18.9941L67.9414 15.5911H67.9926V31.6079Z" fill="white"/>
</g>
<g filter="url(#filter2_d_18_997)">
<rect x="135.192" y="6.60794" width="122.616" height="48.208" rx="5.24" fill="#434343"/>
<path d="M190.577 31.6079H202.756V29.5611H193.737V29.5099L198.125 25.0068C201.515 21.5399 202.449 20.0175 202.449 17.9962V17.9706C202.449 15.0794 200.005 12.8407 196.666 12.8407C193.225 12.8407 190.462 15.2074 190.462 18.4056V18.4824H192.688V18.4184C192.688 16.4355 194.402 14.8492 196.705 14.8492C198.713 14.8492 200.133 16.2052 200.146 18.0858V18.1114C200.146 19.6465 199.57 20.6444 197.076 23.2413L190.577 30.0216V31.6079Z" fill="white"/>
<path d="M183.417 46.6079H185.04L185.587 44.8169H188.192L188.739 46.6079H190.367L187.798 39.2238H185.981L183.417 46.6079ZM186.846 40.6976H186.938L187.839 43.6604H185.94L186.846 40.6976ZM193.716 46.6079H197.032C198.608 46.6079 199.586 45.7943 199.586 44.4997V44.4894C199.586 43.5427 198.874 42.811 197.897 42.7342V42.6421C198.654 42.5295 199.233 41.849 199.233 41.0711V41.0609C199.233 39.9249 198.378 39.2238 196.945 39.2238H193.716V46.6079ZM196.551 40.3701C197.288 40.3701 197.713 40.7283 197.713 41.327V41.3372C197.713 41.9462 197.257 42.2942 196.423 42.2942H195.262V40.3701H196.551ZM196.602 43.3125C197.513 43.3125 198.01 43.6809 198.01 44.3666V44.3768C198.01 45.0779 197.529 45.4566 196.638 45.4566H195.262V43.3125H196.602ZM206.215 46.7973C207.996 46.7973 209.26 45.7431 209.419 44.1977L209.424 44.1415H207.92L207.909 44.1824C207.746 44.9704 207.106 45.4873 206.221 45.4873C205.054 45.4873 204.332 44.5048 204.332 42.9184V42.9082C204.332 41.3219 205.054 40.3445 206.215 40.3445C207.096 40.3445 207.756 40.9074 207.914 41.7364V41.7722H209.419V41.7108C209.276 40.1501 207.966 39.0345 206.215 39.0345C204.071 39.0345 202.751 40.5134 202.751 42.9082V42.9184C202.751 45.3133 204.076 46.7973 206.215 46.7973Z" fill="white"/>
</g>
<g filter="url(#filter3_d_18_997)">
<rect x="264.096" y="6.60794" width="122.616" height="48.208" rx="5.24" fill="#434343"/>
<path d="M325.366 31.915C329.063 31.915 331.775 29.6378 331.775 26.5547V26.5291C331.775 23.9066 329.945 22.2307 327.259 22.0004V21.9492C329.562 21.4631 331.174 19.9024 331.174 17.6252V17.5996C331.174 14.798 328.858 12.8407 325.34 12.8407C321.886 12.8407 319.506 14.8492 319.212 17.8555L319.199 17.9834H321.413L321.425 17.8555C321.617 15.9877 323.165 14.8364 325.34 14.8364C327.592 14.8364 328.858 15.9493 328.858 17.8811V17.9067C328.858 19.7489 327.323 21.1049 325.123 21.1049H322.909V23.0494H325.225C327.809 23.0494 329.434 24.3159 329.434 26.5803V26.6059C329.434 28.5632 327.783 29.9193 325.366 29.9193C322.909 29.9193 321.246 28.6656 321.054 26.849L321.042 26.721H318.828L318.841 26.8745C319.084 29.7913 321.553 31.915 325.366 31.915Z" fill="white"/>
<path d="M313.892 46.6079H316.799C319.01 46.6079 320.263 45.257 320.263 42.8724V42.8622C320.263 40.5492 318.994 39.2238 316.799 39.2238H313.892V46.6079ZM315.438 45.3338V40.498H316.553C317.894 40.498 318.687 41.3679 318.687 42.8877V42.898C318.687 44.4741 317.92 45.3338 316.553 45.3338H315.438ZM323.828 46.6079H328.72V45.3338H325.373V43.466H328.531V42.2788H325.373V40.498H328.72V39.2238H323.828V46.6079ZM332.443 46.6079H333.989V43.7014H336.992V42.4784H333.989V40.498H337.279V39.2238H332.443V46.6079Z" fill="white"/>
</g>
<g filter="url(#filter4_d_18_997)">
<rect x="6.28798" y="62.1519" width="122.616" height="48.208" rx="5.24" fill="#434343"/>
<path d="M69.9499 87.1519H72.1759V83.3141H74.7856V81.2928H72.1759V68.6917H68.7729L60.675 81.2288V83.3141H69.9499V87.1519ZM62.9521 81.2928V81.2416L69.8731 70.6618H69.9499V81.2928H62.9521Z" fill="white"/>
<path d="M59.8506 102.341C61.8668 102.341 63.1256 101.113 63.1256 99.1533V98.2168H60.0246V99.3426H61.6211L61.616 99.4808C61.5853 100.412 60.8894 101.031 59.8762 101.031C58.6583 101.031 57.8856 100.044 57.8856 98.442V98.4318C57.8856 96.8608 58.6225 95.8885 59.8148 95.8885C60.6796 95.8885 61.309 96.3235 61.5188 97.0552L61.529 97.1064H63.0642L63.054 97.0552C62.8339 95.5815 61.5597 94.5785 59.8148 94.5785C57.6656 94.5785 56.3095 96.0778 56.3095 98.4471V98.4573C56.3095 100.862 57.6553 102.341 59.8506 102.341ZM66.7056 102.152H68.251V99.0407H71.5771V102.152H73.1225V94.7678H71.5771V97.7665H68.251V94.7678H66.7056V102.152ZM77.0096 102.152H78.5549V94.7678H77.0096V102.152Z" fill="white"/>
</g>
<g filter="url(#filter5_d_18_997)">
<rect x="135.192" y="62.1519" width="122.616" height="48.208" rx="5.24" fill="#434343"/>
<path d="M196.679 87.459C200.517 87.459 203.242 84.8748 203.255 81.1776V81.152C203.255 77.6084 200.696 75.037 197.152 75.037C195.361 75.037 193.826 75.7022 192.956 76.9432H192.905L193.532 70.7386H202.206V68.6917H191.639L190.692 79.2203H192.726C192.969 78.7981 193.263 78.4399 193.596 78.1329C194.415 77.3909 195.489 77.0199 196.743 77.0199C199.187 77.0199 200.939 78.7598 200.952 81.1904V81.216C200.952 83.6978 199.212 85.4377 196.705 85.4377C194.491 85.4377 192.854 84.0433 192.624 82.2139L192.611 82.1115H190.347L190.359 82.2522C190.628 85.2586 193.148 87.459 196.679 87.459Z" fill="white"/>
<path d="M187.296 102.341C188.893 102.341 189.819 101.436 189.819 99.8799V94.7678H188.274V99.8697C188.274 100.612 187.931 101.006 187.276 101.006C186.672 101.006 186.334 100.607 186.303 100.039V100.008H184.804V100.049C184.845 101.436 185.771 102.341 187.296 102.341ZM193.711 102.152H195.257V99.8953L195.988 99.0151L198.132 102.152H199.985L197.104 98.0019L199.795 94.7678H198.076L195.349 98.0838H195.257V94.7678H193.711V102.152ZM203.248 102.152H208.078V100.878H204.793V94.7678H203.248V102.152Z" fill="white"/>
</g>
<g filter="url(#filter6_d_18_997)">
<rect x="264.096" y="62.1519" width="122.616" height="48.208" rx="5.24" fill="#434343"/>
<path d="M325.494 87.459C329.267 87.459 332.031 84.8236 332.031 81.1904V81.1648C332.031 77.6596 329.421 75.0626 325.903 75.0626C323.395 75.0626 321.502 76.3931 320.76 78.0306H320.709C320.709 77.8898 320.709 77.7619 320.722 77.634C320.824 73.7577 322.18 70.4187 325.621 70.4187C327.515 70.4187 328.833 71.3654 329.383 72.8878L329.434 73.0285H331.775L331.737 72.8622C331.122 70.1757 328.781 68.3847 325.647 68.3847C321.131 68.3847 318.483 72.0179 318.483 78.2352V78.2608C318.483 85.1051 322.091 87.459 325.494 87.459ZM321.259 81.1648V81.152C321.259 78.7981 323.088 77.0839 325.506 77.0839C327.937 77.0839 329.69 78.8109 329.69 81.216V81.2416C329.69 83.5699 327.822 85.4121 325.468 85.4121C323.101 85.4121 321.259 83.5315 321.259 81.1648Z" fill="white"/>
<path d="M311.298 102.152H312.674V97.1269H312.777L314.67 102.152H315.637L317.531 97.1269H317.633V102.152H319.01V94.7678H317.239L315.202 100.172H315.11L313.069 94.7678H311.298V102.152ZM322.902 102.152H324.381V97.4288H324.462L327.881 102.152H329.16V94.7678H327.681V99.4705H327.599L324.191 94.7678H322.902V102.152ZM336.281 102.341C338.461 102.341 339.832 100.847 339.832 98.4625V98.4522C339.832 96.0676 338.456 94.5785 336.281 94.5785C334.106 94.5785 332.725 96.0625 332.725 98.4522V98.4625C332.725 100.847 334.086 102.341 336.281 102.341ZM336.281 101.031C335.063 101.031 334.301 100.023 334.301 98.4625V98.4522C334.301 96.8864 335.079 95.8885 336.281 95.8885C337.479 95.8885 338.256 96.8864 338.256 98.4522V98.4625C338.256 100.023 337.484 101.031 336.281 101.031Z" fill="white"/>
</g>
<g filter="url(#filter7_d_18_997)">
<rect x="6.28798" y="117.696" width="122.616" height="48.208" rx="5.24" fill="#434343"/>
<path d="M62.9905 142.696H65.4084L73.6215 126.372V124.236H61.4042V126.283H71.3443V126.334L62.9905 142.696Z" fill="white"/>
<path d="M50.5128 157.696H52.0582V155.368H53.5575C55.1131 155.368 56.1519 154.365 56.1519 152.845V152.835C56.1519 151.315 55.1131 150.312 53.5575 150.312H50.5128V157.696ZM53.1788 151.535C54.0641 151.535 54.586 152.001 54.586 152.84V152.85C54.586 153.689 54.0641 154.16 53.1788 154.16H52.0582V151.535H53.1788ZM62.8994 157.885C63.3753 157.885 63.8154 157.814 64.2094 157.675L64.7723 158.428H66.2102L65.2175 157.102C66.0056 156.437 66.4508 155.368 66.4508 154.006V153.996C66.4508 151.612 65.0742 150.123 62.8994 150.123C60.7246 150.123 59.343 151.607 59.343 153.996V154.006C59.343 156.391 60.7042 157.885 62.8994 157.885ZM62.8994 156.575C61.6815 156.575 60.9191 155.567 60.9191 154.006V153.996C60.9191 152.43 61.6969 151.433 62.8994 151.433C64.0968 151.433 64.8747 152.43 64.8747 153.996V154.006C64.8747 154.805 64.67 155.455 64.3118 155.905L63.8359 155.265H62.3979L63.3446 156.524C63.2013 156.56 63.0529 156.575 62.8994 156.575ZM70.0154 157.696H71.5608V154.994H72.8247L74.2012 157.696H75.9513L74.3957 154.764C75.24 154.431 75.7313 153.618 75.7313 152.671V152.661C75.7313 151.207 74.7693 150.312 73.0908 150.312H70.0154V157.696ZM71.5608 153.868V151.52H72.9015C73.6742 151.52 74.1501 151.98 74.1501 152.691V152.702C74.1501 153.428 73.6946 153.868 72.9219 153.868H71.5608ZM82.0285 157.885C83.8707 157.885 85.0067 156.959 85.0067 155.496V155.49C85.0067 154.339 84.3261 153.715 82.7654 153.392L81.9824 153.234C81.1125 153.055 80.7543 152.768 80.7543 152.287V152.282C80.7543 151.729 81.2609 151.381 82.0234 151.376C82.8012 151.376 83.3129 151.745 83.3999 152.272L83.4101 152.333H84.8634L84.8583 152.267C84.7611 151.033 83.7479 150.123 82.0234 150.123C80.3859 150.123 79.2089 151.028 79.2089 152.4V152.405C79.2089 153.525 79.869 154.242 81.4042 154.554L82.182 154.713C83.098 154.902 83.4613 155.173 83.4613 155.659V155.664C83.4613 156.232 82.8933 156.626 82.0694 156.626C81.2046 156.626 80.6059 156.253 80.5496 155.7L80.5445 155.649H79.0554L79.0605 155.731C79.1475 157.041 80.2631 157.885 82.0285 157.885Z" fill="white"/>
</g>
<g filter="url(#filter8_d_18_997)">
<rect x="135.192" y="117.696" width="122.616" height="48.208" rx="5.24" fill="#434343"/>
<path d="M196.5 143.003C200.415 143.003 203.204 140.803 203.204 137.707V137.681C203.204 135.404 201.604 133.511 199.238 132.961V132.909C201.259 132.282 202.538 130.747 202.538 128.803V128.777C202.538 125.988 199.992 123.929 196.5 123.929C193.008 123.929 190.462 125.988 190.462 128.777V128.803C190.462 130.747 191.741 132.282 193.762 132.909V132.961C191.396 133.511 189.796 135.404 189.796 137.681V137.707C189.796 140.803 192.585 143.003 196.5 143.003ZM196.5 132.052C194.274 132.052 192.752 130.786 192.752 128.995V128.969C192.752 127.178 194.274 125.912 196.5 125.912C198.726 125.912 200.248 127.178 200.248 128.969V128.995C200.248 130.786 198.726 132.052 196.5 132.052ZM196.5 140.994C193.954 140.994 192.138 139.562 192.138 137.566V137.54C192.138 135.519 193.941 134.073 196.5 134.073C199.059 134.073 200.862 135.519 200.862 137.54V137.566C200.862 139.562 199.046 140.994 196.5 140.994Z" fill="white"/>
<path d="M185.863 157.696H187.409V151.586H189.625V150.312H183.648V151.586H185.863V157.696ZM196.178 157.885C198.081 157.885 199.268 156.785 199.268 155.148V150.312H197.723V155.009C197.723 155.966 197.17 156.575 196.178 156.575C195.185 156.575 194.627 155.966 194.627 155.009V150.312H193.082V155.148C193.082 156.79 194.284 157.885 196.178 157.885ZM205.09 157.696H206.993L209.455 150.312H207.715L206.088 155.977H205.995L204.363 150.312H202.628L205.09 157.696Z" fill="white"/>
</g>
<g filter="url(#filter9_d_18_997)">
<rect x="264.096" y="117.696" width="122.616" height="48.208" rx="5.24" fill="#434343"/>
<path d="M325.314 123.929C321.541 123.929 318.777 126.564 318.777 130.197V130.223C318.777 133.728 321.387 136.325 324.905 136.325C327.412 136.325 329.306 134.995 330.048 133.357H330.099C330.099 133.498 330.099 133.626 330.086 133.754C329.984 137.63 328.628 140.969 325.187 140.969C323.293 140.969 321.975 140.022 321.425 138.5L321.374 138.359H319.033L319.071 138.525C319.686 141.212 322.027 143.003 325.161 143.003C329.677 143.003 332.325 139.37 332.325 133.152V133.127C332.325 126.283 328.717 123.929 325.314 123.929ZM325.302 134.304C322.871 134.304 321.118 132.577 321.118 130.172V130.146C321.118 127.818 322.986 125.976 325.34 125.976C327.707 125.976 329.549 127.856 329.549 130.223V130.236C329.549 132.59 327.72 134.304 325.302 134.304Z" fill="white"/>
<path d="M308.3 157.696H309.759L311.14 152.722H311.222L312.619 157.696H314.067L316.027 150.312H314.431L313.29 155.588H313.208L311.836 150.312H310.531L309.186 155.588H309.104L307.952 150.312H306.346L308.3 157.696ZM319.024 157.696H320.692L322.304 155.107H322.355L323.972 157.696H325.733L323.348 154.006V153.986L325.768 150.312H324.039L322.483 152.973H322.422L320.856 150.312H319.034L321.368 153.96V153.976L319.024 157.696ZM331.252 157.696H332.797V154.938L335.371 150.312H333.698L332.076 153.418H331.984L330.356 150.312H328.683L331.252 154.938V157.696ZM338.521 157.696H344.222V156.422H340.415V156.33L344.12 151.315V150.312H338.608V151.586H342.236V151.678L338.521 156.688V157.696Z" fill="white"/>
</g>
<g filter="url(#filter10_d_18_997)">
<rect x="135.192" y="173.24" width="122.616" height="48.208" rx="5.24" fill="#434343"/>
<path d="M196.487 198.547C200.734 198.547 203.28 194.875 203.28 189.016V188.991C203.28 183.131 200.734 179.473 196.487 179.473C192.24 179.473 189.72 183.131 189.72 188.991V189.016C189.72 194.875 192.24 198.547 196.487 198.547ZM196.487 196.538C193.673 196.538 192.035 193.647 192.035 189.016V188.991C192.035 184.36 193.673 181.494 196.487 181.494C199.302 181.494 200.965 184.36 200.965 188.991V189.016C200.965 193.647 199.302 196.538 196.487 196.538Z" fill="white"/>
</g>
<path d="M333.78 208.595C336.133 208.595 337.315 207.436 337.315 205.106V191.36C337.315 189.029 336.133 187.87 333.78 187.87H323.997C322.68 187.87 321.543 188.208 320.619 189.187L313.989 196.077C313.257 196.831 312.919 197.507 312.919 198.216C312.919 198.914 313.246 199.601 313.989 200.355L320.631 207.211C321.565 208.179 322.691 208.584 324.008 208.584L333.78 208.595ZM333.757 206.783H323.974C323.119 206.783 322.59 206.58 321.993 205.972L315.396 199.161C315.013 198.767 314.9 198.497 314.9 198.216C314.9 197.923 315.024 197.653 315.396 197.259L321.982 190.425C322.567 189.829 323.119 189.682 323.963 189.682H333.757C334.883 189.682 335.502 190.279 335.502 191.45V205.016C335.502 206.186 334.883 206.783 333.757 206.783ZM323.344 202.989C323.591 202.989 323.817 202.888 323.986 202.708L327.183 199.499L330.38 202.708C330.549 202.877 330.774 202.989 331.033 202.989C331.528 202.989 331.934 202.573 331.934 202.077C331.934 201.818 331.832 201.604 331.663 201.436L328.466 198.238L331.675 195.019C331.855 194.827 331.945 194.636 331.945 194.388C331.945 193.882 331.539 193.488 331.044 193.488C330.808 193.488 330.605 193.566 330.414 193.758L327.183 196.977L323.963 193.769C323.794 193.589 323.591 193.51 323.344 193.51C322.848 193.51 322.443 193.893 322.443 194.399C322.443 194.647 322.533 194.861 322.713 195.03L325.911 198.238L322.713 201.447C322.533 201.604 322.443 201.83 322.443 202.077C322.443 202.573 322.848 202.989 323.344 202.989Z" fill="#E7E7E7"/>
</g>
<g filter="url(#filter11_b_18_997)">
<rect width="393" height="74.408" transform="translate(-1.52588e-05 227.736)" fill="#202020" fill-opacity="0.92"/>
<rect x="126.284" y="287.472" width="140.432" height="5.24" rx="2.62" fill="white"/>
</g>
<defs>
<filter id="filter0_b_18_997" x="-20.96" y="-20.6401" width="434.92" height="269.336" filterUnits="userSpaceOnUse" color-interpolation-filters="sRGB">
<feFlood flood-opacity="0" result="BackgroundImageFix"/>
<feGaussianBlur in="BackgroundImageFix" stdDeviation="10.48"/>
<feComposite in2="SourceAlpha" operator="in" result="effect1_backgroundBlur_18_997"/>
<feBlend mode="normal" in="SourceGraphic" in2="effect1_backgroundBlur_18_997" result="shape"/>
</filter>
<filter id="filter1_d_18_997" x="6.28798" y="6.60794" width="122.616" height="49.256" filterUnits="userSpaceOnUse" color-interpolation-filters="sRGB">
<feFlood flood-opacity="0" result="BackgroundImageFix"/>
<feColorMatrix in="SourceAlpha" type="matrix" values="0 0 0 0 0 0 0 0 0 0 0 0 0 0 0 0 0 0 127 0" result="hardAlpha"/>
<feOffset dy="1.048"/>
<feColorMatrix type="matrix" values="0 0 0 0 0 0 0 0 0 0 0 0 0 0 0 0 0 0 1 0"/>
<feBlend mode="normal" in2="BackgroundImageFix" result="effect1_dropShadow_18_997"/>
<feBlend mode="normal" in="SourceGraphic" in2="effect1_dropShadow_18_997" result="shape"/>
</filter>
<filter id="filter2_d_18_997" x="135.192" y="6.60794" width="122.616" height="49.256" filterUnits="userSpaceOnUse" color-interpolation-filters="sRGB">
<feFlood flood-opacity="0" result="BackgroundImageFix"/>
<feColorMatrix in="SourceAlpha" type="matrix" values="0 0 0 0 0 0 0 0 0 0 0 0 0 0 0 0 0 0 127 0" result="hardAlpha"/>
<feOffset dy="1.048"/>
<feColorMatrix type="matrix" values="0 0 0 0 0 0 0 0 0 0 0 0 0 0 0 0 0 0 1 0"/>
<feBlend mode="normal" in2="BackgroundImageFix" result="effect1_dropShadow_18_997"/>
<feBlend mode="normal" in="SourceGraphic" in2="effect1_dropShadow_18_997" result="shape"/>
</filter>
<filter id="filter3_d_18_997" x="264.096" y="6.60794" width="122.616" height="49.256" filterUnits="userSpaceOnUse" color-interpolation-filters="sRGB">
<feFlood flood-opacity="0" result="BackgroundImageFix"/>
<feColorMatrix in="SourceAlpha" type="matrix" values="0 0 0 0 0 0 0 0 0 0 0 0 0 0 0 0 0 0 127 0" result="hardAlpha"/>
<feOffset dy="1.048"/>
<feColorMatrix type="matrix" values="0 0 0 0 0 0 0 0 0 0 0 0 0 0 0 0 0 0 1 0"/>
<feBlend mode="normal" in2="BackgroundImageFix" result="effect1_dropShadow_18_997"/>
<feBlend mode="normal" in="SourceGraphic" in2="effect1_dropShadow_18_997" result="shape"/>
</filter>
<filter id="filter4_d_18_997" x="6.28798" y="62.1519" width="122.616" height="49.256" filterUnits="userSpaceOnUse" color-interpolation-filters="sRGB">
<feFlood flood-opacity="0" result="BackgroundImageFix"/>
<feColorMatrix in="SourceAlpha" type="matrix" values="0 0 0 0 0 0 0 0 0 0 0 0 0 0 0 0 0 0 127 0" result="hardAlpha"/>
<feOffset dy="1.048"/>
<feColorMatrix type="matrix" values="0 0 0 0 0 0 0 0 0 0 0 0 0 0 0 0 0 0 1 0"/>
<feBlend mode="normal" in2="BackgroundImageFix" result="effect1_dropShadow_18_997"/>
<feBlend mode="normal" in="SourceGraphic" in2="effect1_dropShadow_18_997" result="shape"/>
</filter>
<filter id="filter5_d_18_997" x="135.192" y="62.1519" width="122.616" height="49.256" filterUnits="userSpaceOnUse" color-interpolation-filters="sRGB">
<feFlood flood-opacity="0" result="BackgroundImageFix"/>
<feColorMatrix in="SourceAlpha" type="matrix" values="0 0 0 0 0 0 0 0 0 0 0 0 0 0 0 0 0 0 127 0" result="hardAlpha"/>
<feOffset dy="1.048"/>
<feColorMatrix type="matrix" values="0 0 0 0 0 0 0 0 0 0 0 0 0 0 0 0 0 0 1 0"/>
<feBlend mode="normal" in2="BackgroundImageFix" result="effect1_dropShadow_18_997"/>
<feBlend mode="normal" in="SourceGraphic" in2="effect1_dropShadow_18_997" result="shape"/>
</filter>
<filter id="filter6_d_18_997" x="264.096" y="62.1519" width="122.616" height="49.256" filterUnits="userSpaceOnUse" color-interpolation-filters="sRGB">
<feFlood flood-opacity="0" result="BackgroundImageFix"/>
<feColorMatrix in="SourceAlpha" type="matrix" values="0 0 0 0 0 0 0 0 0 0 0 0 0 0 0 0 0 0 127 0" result="hardAlpha"/>
<feOffset dy="1.048"/>
<feColorMatrix type="matrix" values="0 0 0 0 0 0 0 0 0 0 0 0 0 0 0 0 0 0 1 0"/>
<feBlend mode="normal" in2="BackgroundImageFix" result="effect1_dropShadow_18_997"/>
<feBlend mode="normal" in="SourceGraphic" in2="effect1_dropShadow_18_997" result="shape"/>
</filter>
<filter id="filter7_d_18_997" x="6.28798" y="117.696" width="122.616" height="49.256" filterUnits="userSpaceOnUse" color-interpolation-filters="sRGB">
<feFlood flood-opacity="0" result="BackgroundImageFix"/>
<feColorMatrix in="SourceAlpha" type="matrix" values="0 0 0 0 0 0 0 0 0 0 0 0 0 0 0 0 0 0 127 0" result="hardAlpha"/>
<feOffset dy="1.048"/>
<feColorMatrix type="matrix" values="0 0 0 0 0 0 0 0 0 0 0 0 0 0 0 0 0 0 1 0"/>
<feBlend mode="normal" in2="BackgroundImageFix" result="effect1_dropShadow_18_997"/>
<feBlend mode="normal" in="SourceGraphic" in2="effect1_dropShadow_18_997" result="shape"/>
</filter>
<filter id="filter8_d_18_997" x="135.192" y="117.696" width="122.616" height="49.256" filterUnits="userSpaceOnUse" color-interpolation-filters="sRGB">
<feFlood flood-opacity="0" result="BackgroundImageFix"/>
<feColorMatrix in="SourceAlpha" type="matrix" values="0 0 0 0 0 0 0 0 0 0 0 0 0 0 0 0 0 0 127 0" result="hardAlpha"/>
<feOffset dy="1.048"/>
<feColorMatrix type="matrix" values="0 0 0 0 0 0 0 0 0 0 0 0 0 0 0 0 0 0 1 0"/>
<feBlend mode="normal" in2="BackgroundImageFix" result="effect1_dropShadow_18_997"/>
<feBlend mode="normal" in="SourceGraphic" in2="effect1_dropShadow_18_997" result="shape"/>
</filter>
<filter id="filter9_d_18_997" x="264.096" y="117.696" width="122.616" height="49.256" filterUnits="userSpaceOnUse" color-interpolation-filters="sRGB">
<feFlood flood-opacity="0" result="BackgroundImageFix"/>
<feColorMatrix in="SourceAlpha" type="matrix" values="0 0 0 0 0 0 0 0 0 0 0 0 0 0 0 0 0 0 127 0" result="hardAlpha"/>
<feOffset dy="1.048"/>
<feColorMatrix type="matrix" values="0 0 0 0 0 0 0 0 0 0 0 0 0 0 0 0 0 0 1 0"/>
<feBlend mode="normal" in2="BackgroundImageFix" result="effect1_dropShadow_18_997"/>
<feBlend mode="normal" in="SourceGraphic" in2="effect1_dropShadow_18_997" result="shape"/>
</filter>
<filter id="filter10_d_18_997" x="135.192" y="173.24" width="122.616" height="49.256" filterUnits="userSpaceOnUse" color-interpolation-filters="sRGB">
<feFlood flood-opacity="0" result="BackgroundImageFix"/>
<feColorMatrix in="SourceAlpha" type="matrix" values="0 0 0 0 0 0 0 0 0 0 0 0 0 0 0 0 0 0 127 0" result="hardAlpha"/>
<feOffset dy="1.048"/>
<feColorMatrix type="matrix" values="0 0 0 0 0 0 0 0 0 0 0 0 0 0 0 0 0 0 1 0"/>
<feBlend mode="normal" in2="BackgroundImageFix" result="effect1_dropShadow_18_997"/>
<feBlend mode="normal" in="SourceGraphic" in2="effect1_dropShadow_18_997" result="shape"/>
</filter>
<filter id="filter11_b_18_997" x="-20.96" y="206.776" width="434.92" height="116.328" filterUnits="userSpaceOnUse" color-interpolation-filters="sRGB">
<feFlood flood-opacity="0" result="BackgroundImageFix"/>
<feGaussianBlur in="BackgroundImageFix" stdDeviation="10.48"/>
<feComposite in2="SourceAlpha" operator="in" result="effect1_backgroundBlur_18_997"/>
<feBlend mode="normal" in="SourceGraphic" in2="effect1_backgroundBlur_18_997" result="shape"/>
</filter>
</defs>
</svg>
