<svg width="34" height="34" viewBox="0 0 34 34" fill="none" xmlns="http://www.w3.org/2000/svg">
<g clip-path="url(#clip0_33_995)">
<path d="M24.5432 11.7671C24.6227 11.6038 24.6073 11.4103 24.5031 11.2616C24.399 11.1128 24.2224 11.0322 24.0418 11.051L21.445 11.3215C16.3288 11.8543 11.2804 12.9085 6.37861 14.4678L5.7146 14.679C5.56303 14.7272 5.44343 14.8447 5.3925 14.9954C5.34157 15.1461 5.36536 15.312 5.45659 15.4423L8.75465 20.1524C8.90717 20.3702 9.20352 20.4306 9.42909 20.2897L10.2867 19.7542C12.3774 18.4483 14.573 17.3185 16.8509 16.3763L17.0765 16.2831C17.1266 16.2623 17.1579 16.2668 17.1782 16.2736C17.2039 16.2822 17.2333 16.3024 17.2566 16.3356C17.2799 16.3689 17.2889 16.4035 17.2881 16.4305C17.2875 16.452 17.2811 16.4829 17.2444 16.5229L17.0796 16.703C15.4151 18.5212 13.6025 20.1981 11.6604 21.7161L10.8638 22.3387C10.6543 22.5025 10.6097 22.8016 10.7622 23.0194L14.0602 27.7296C14.1515 27.8599 14.2992 27.939 14.4583 27.9427C14.6173 27.9464 14.7686 27.8741 14.8657 27.7481L15.2913 27.1964C18.433 23.1235 21.1504 18.7402 23.4009 14.1148L24.5432 11.7671Z" fill="#72BEEE"/>
</g>
<defs>
<clipPath id="clip0_33_995">
<rect width="24" height="24" fill="white" transform="translate(0 13.7659) rotate(-35)"/>
</clipPath>
</defs>
</svg>
