<svg width="23" height="22" viewBox="0 0 23 22" fill="none" xmlns="http://www.w3.org/2000/svg">
<path d="M17 2.75C17.9725 2.75 18.9051 3.13631 19.5928 3.82394C20.2804 4.51158 20.6667 5.44421 20.6667 6.41667V13.75C20.6667 14.7225 20.2804 15.6551 19.5928 16.3427C18.9051 17.0304 17.9725 17.4167 17 17.4167H12.6697L8.30454 20.0356C8.17308 20.1145 8.02393 20.1591 7.87075 20.1655C7.71757 20.1718 7.56524 20.1396 7.42771 20.0719C7.29018 20.0041 7.17185 19.9029 7.08353 19.7776C6.99522 19.6523 6.93975 19.5068 6.92221 19.3545L6.91671 19.25V17.4167H6.00004C5.05932 17.4167 4.15458 17.0551 3.47296 16.4068C2.79134 15.7584 2.38499 14.8729 2.33796 13.9333L2.33337 13.75V6.41667C2.33337 5.44421 2.71968 4.51158 3.40732 3.82394C4.09495 3.13631 5.02758 2.75 6.00004 2.75H17ZM13.3334 11H7.83337C7.59026 11 7.3571 11.0966 7.18519 11.2685C7.01328 11.4404 6.91671 11.6736 6.91671 11.9167C6.91671 12.1598 7.01328 12.3929 7.18519 12.5648C7.3571 12.7368 7.59026 12.8333 7.83337 12.8333H13.3334C13.5765 12.8333 13.8096 12.7368 13.9816 12.5648C14.1535 12.3929 14.25 12.1598 14.25 11.9167C14.25 11.6736 14.1535 11.4404 13.9816 11.2685C13.8096 11.0966 13.5765 11 13.3334 11ZM15.1667 7.33333H7.83337C7.59026 7.33333 7.3571 7.42991 7.18519 7.60182C7.01328 7.77373 6.91671 8.00689 6.91671 8.25C6.91671 8.49312 7.01328 8.72627 7.18519 8.89818C7.3571 9.07009 7.59026 9.16667 7.83337 9.16667H15.1667C15.4098 9.16667 15.643 9.07009 15.8149 8.89818C15.9868 8.72627 16.0834 8.49312 16.0834 8.25C16.0834 8.00689 15.9868 7.77373 15.8149 7.60182C15.643 7.42991 15.4098 7.33333 15.1667 7.33333Z" fill="white"/>
</svg>
