<svg width="20" height="20" viewBox="0 0 20 20" fill="none" xmlns="http://www.w3.org/2000/svg">
<path d="M8.33329 1.875C7.98812 1.875 7.70829 2.15483 7.70829 2.5V3.125H4.16663C3.82145 3.125 3.54163 3.40482 3.54163 3.75C3.54163 4.09518 3.82145 4.375 4.16663 4.375H15.8333C16.1785 4.375 16.4583 4.09518 16.4583 3.75C16.4583 3.40482 16.1785 3.125 15.8333 3.125H12.2916V2.5C12.2916 2.15483 12.0118 1.875 11.6666 1.875H8.33329Z" fill="white"/>
<path d="M8.33337 8.875C8.67854 8.875 8.95837 9.15483 8.95837 9.5V15.3333C8.95837 15.6785 8.67854 15.9583 8.33337 15.9583C7.9882 15.9583 7.70837 15.6785 7.70837 15.3333V9.5C7.70837 9.15483 7.9882 8.875 8.33337 8.875Z" fill="white"/>
<path d="M12.2916 9.5C12.2916 9.15483 12.0118 8.875 11.6666 8.875C11.3215 8.875 11.0416 9.15483 11.0416 9.5V15.3333C11.0416 15.6785 11.3215 15.9583 11.6666 15.9583C12.0118 15.9583 12.2916 15.6785 12.2916 15.3333V9.5Z" fill="white"/>
<path fill-rule="evenodd" clip-rule="evenodd" d="M4.99279 6.59761C5.02796 6.28108 5.29551 6.04163 5.61397 6.04163H14.3859C14.7044 6.04163 14.9719 6.28108 15.0071 6.59761L15.1739 8.09873C15.4762 10.8198 15.4762 13.566 15.1739 16.2871L15.1574 16.435C15.0374 17.515 14.2003 18.3764 13.124 18.527C11.0514 18.8172 8.94844 18.8172 6.87584 18.527C5.79956 18.3764 4.96244 17.515 4.84242 16.435L4.82601 16.2871C4.52366 13.566 4.52366 10.8198 4.82601 8.09873L4.99279 6.59761ZM6.17337 7.29163L6.06836 8.23677C5.77621 10.8661 5.77621 13.5198 6.06836 16.1491L6.08477 16.2969C6.1417 16.8091 6.53871 17.2176 7.04915 17.2891C9.00677 17.5631 10.9931 17.5631 12.9507 17.2891C13.4612 17.2176 13.8582 16.8091 13.9151 16.2969L13.9315 16.1491C14.2237 13.5198 14.2237 10.8661 13.9315 8.23677L13.8265 7.29163H6.17337Z" fill="white"/>
</svg>
